HIERARCHY
ROOT Hips
{
    OFFSET 0.000000 0.000000 0.000000
    CHANNELS 6 Xposition Yposition Zposition Zrotation Xrotation Yrotation
    JOINT Spine
    {
        OFFSET -0.000000 8.172037 0.000000
        CHANNELS 3 Zrotation Xrotation Yrotation
        JOINT Spine1
        {
            OFFSET -0.000000 18.392342 0.000000
            CHANNELS 3 Zrotation Xrotation Yrotation
            JOINT Neck
            {
                OFFSET -0.000000 18.316809 1.665164
                CHANNELS 3 Zrotation Xrotation Yrotation
                JOINT Head
                {
                    OFFSET -0.000000 13.952258 -1.993180
                    CHANNELS 3 Zrotation Xrotation Yrotation
                    End Site
                    {
                        OFFSET -0.000000 24.914745 0.000000
                    }
                }
            }
            JOINT LeftShoulder
            {
                OFFSET 4.035833 16.062790 -0.310290
                CHANNELS 3 Zrotation Xrotation Yrotation
                JOINT LeftArm
                {
                    OFFSET 12.395579 0.000000 0.000000
                    CHANNELS 3 Zrotation Xrotation Yrotation
                    JOINT LeftForeArm
                    {
                        OFFSET 26.414022 0.000000 0.000000
                        CHANNELS 3 Zrotation Xrotation Yrotation
                        JOINT LeftHand
                        {
                            OFFSET 28.641636 0.000000 0.000000
                            CHANNELS 3 Zrotation Xrotation Yrotation
                            End Site
                            {
                                OFFSET 14.948848 0.000000 0.000000
                            }
                        }
                    }
                }
            }
            JOINT RightShoulder
            {
                OFFSET -3.919767 16.062790 -0.310290
                CHANNELS 3 Zrotation Xrotation Yrotation
                JOINT RightArm
                {
                    OFFSET -12.395579 0.000000 0.000000
                    CHANNELS 3 Zrotation Xrotation Yrotation
                    JOINT RightForeArm
                    {
                        OFFSET -26.414022 0.000000 0.000000
                        CHANNELS 3 Zrotation Xrotation Yrotation
                        JOINT RightHand
                        {
                            OFFSET -28.641636 0.000000 0.000000
                            CHANNELS 3 Zrotation Xrotation Yrotation
                            End Site
                            {
                                OFFSET -14.948848 0.000000 0.000000
                            }
                        }
                    }
                }
            }
        }
    }
    JOINT LeftUpLeg
    {
        OFFSET 9.965899 0.000000 0.000000
        CHANNELS 3 Zrotation Xrotation Yrotation
        JOINT LeftLeg
        {
            OFFSET -0.000000 -49.671295 0.000000
            CHANNELS 3 Zrotation Xrotation Yrotation
            JOINT LeftFoot
            {
                OFFSET -0.000000 -36.155865 0.000000
                CHANNELS 3 Zrotation Xrotation Yrotation
                JOINT LeftToeBase
                {
                    OFFSET -0.000000 -6.477834 14.948848
                    CHANNELS 3 Zrotation Xrotation Yrotation
                    End Site
                    {
                        OFFSET -0.000000 0.000000 3.986359
                    }
                }
            }
        }
    }
    JOINT RightUpLeg
    {
        OFFSET -9.965899 0.000000 0.000000
        CHANNELS 3 Zrotation Xrotation Yrotation
        JOINT RightLeg
        {
            OFFSET -0.000000 -49.671295 0.000000
            CHANNELS 3 Zrotation Xrotation Yrotation
            JOINT RightFoot
            {
                OFFSET -0.000000 -36.155865 0.000000
                CHANNELS 3 Zrotation Xrotation Yrotation
                JOINT RightToeBase
                {
                    OFFSET -0.000000 -6.477834 14.948848
                    CHANNELS 3 Zrotation Xrotation Yrotation
                    End Site
                    {
                        OFFSET -0.000000 0.000000 3.986359
                    }
                }
            }
        }
    }
}
MOTION
Frames:    9
Frame Time:    0.010000
-15.300097    98.706306    126.480530    -0.747367    1.293459    161.090515    -7.453466    -1.638300    -3.780758    1.283471    -8.527490    -3.578351    23.590242    25.447952    7.019826    -21.265989    14.852737    9.212594    12.946918    -5.729474    -13.857057    -57.136181    8.934098    -64.321060    0.000000    0.000000    0.000000    0.000000    0.000000    0.000000    -5.143064    -0.093069    -1.853699    37.899212    33.901497    47.012611    6.304922    -19.750584    113.089142    -14.453483    -22.942795    -45.812435    3.446069    -0.140028    6.448025    -4.708993    3.297582    4.270513    7.125859    2.297330    -7.233686    0.000000    0.000000    0.000000    -4.317406    5.243936    4.695490    8.649676    5.807598    -1.187340    -18.509687    -4.743909    3.480554    0.000000    0.000000    0.000000    
-15.343219    98.711800    126.464203    -0.690560    1.325387    161.022064    -7.489200    -1.606836    -3.803710    1.330378    -8.496965    -3.599710    23.668407    25.523628    7.042444    -21.364227    14.817463    9.253986    12.992531    -5.763169    -13.788577    -55.086277    10.610616    -64.816849    0.000000    0.000000    0.000000    0.000000    0.000000    0.000000    -6.986973    -0.167679    -2.389431    39.593166    34.794956    47.438744    5.593496    -20.160381    109.739731    -12.642776    -22.924784    -42.943302    3.492343    -0.100543    6.596514    -4.749526    3.387769    4.046941    7.050355    2.243973    -7.032347    0.000000    0.000000    0.000000    -4.286039    5.144052    5.474039    8.660334    5.975552    -0.602847    -17.777927    -4.882810    2.888793    0.000000    0.000000    0.000000    
-15.373750    98.717102    126.449348    -0.623516    1.360351    160.947708    -7.505723    -1.550583    -3.814468    1.339536    -8.503059    -3.613176    23.718052    25.629623    7.052560    -21.368265    14.729920    9.277838    13.061522    -5.766586    -13.742301    -55.034809    10.624790    -64.772835    0.000000    0.000000    0.000000    0.000000    0.000000    0.000000    -6.986973    -0.167679    -2.389431    41.697369    35.460266    47.858768    5.276294    -20.121159    108.580566    -11.975962    -22.694445    -41.786457    3.544999    -0.048999    6.721822    -4.794305    3.441890    4.204708    7.030554    2.222736    -7.171512    0.000000    0.000000    0.000000    -4.205358    5.056656    6.308698    8.702154    6.126735    -0.326251    -17.469263    -5.251232    2.825525    0.000000    0.000000    0.000000    
-15.400633    98.719933    126.437363    -0.584056    1.414121    160.874405    -7.575941    -1.500194    -3.837786    1.388857    -8.485682    -3.635405    23.729540    25.762186    7.056588    -21.374617    14.615177    9.292850    13.101922    -5.773418    -13.679428    -55.102352    10.531108    -64.670860    0.000000    0.000000    0.000000    0.000000    0.000000    0.000000    -6.986973    -0.167679    -2.389431    41.693462    35.699230    47.946156    5.057634    -20.465864    108.528389    -11.892419    -22.778421    -41.754364    3.546243    0.030015    6.855179    -4.769810    3.432805    4.418991    6.941689    2.229521    -7.454217    0.000000    0.000000    0.000000    -4.128613    5.005162    7.098312    8.672370    6.228781    -0.085023    -17.745569    -5.798796    3.400678    0.000000    0.000000    0.000000    
-15.420582    98.719147    126.424667    -0.532005    1.468183    160.806992    -7.608394    -1.438526    -3.849072    1.395858    -8.462856    -3.650115    23.733358    25.806341    7.078840    -21.326910    14.602685    9.325502    13.084929    -5.828322    -13.667280    -55.108135    10.425784    -64.517761    0.000000    0.000000    0.000000    0.000000    0.000000    0.000000    -6.986973    -0.167679    -2.389431    41.792488    35.808277    47.938404    4.998013    -20.593065    108.570045    -11.877975    -22.828024    -41.834759    3.554120    0.118996    6.922714    -4.752606    3.391394    4.691659    6.868649    2.260687    -7.685956    0.000000    0.000000    0.000000    -4.092132    4.941163    8.214592    8.836679    6.337855    0.178689    -17.486860    -5.850304    3.007291    0.000000    0.000000    0.000000    
-15.438616    98.713074    126.413979    -0.514885    1.515561    160.734070    -7.674407    -1.403896    -3.857120    1.414497    -8.420845    -3.658800    23.704178    25.818233    7.100745    -21.262777    14.611289    9.351083    13.077655    -5.867267    -13.628078    -55.220242    10.249755    -64.397400    0.000000    0.000000    0.000000    0.000000    0.000000    0.000000    -6.986973    -0.167679    -2.389431    41.876781    35.871540    47.937538    4.935997    -20.645464    108.596947    -11.903927    -22.789064    -41.877552    3.523895    0.180662    7.014614    -4.711957    3.404151    4.737205    6.760383    2.242676    -7.682657    0.000000    0.000000    0.000000    -3.827629    4.651056    8.840668    8.414351    6.970869    -0.016509    -16.724319    -6.206483    3.040625    0.000000    0.000000    0.000000    
-15.458302    98.703491    126.411209    -0.510049    1.549542    160.683304    -7.738060    -1.357105    -3.869298    1.424851    -8.425956    -3.672531    23.701384    25.837488    7.121180    -21.236792    14.666021    9.387934    13.058981    -5.910468    -13.645103    -55.087467    10.345049    -64.269524    0.000000    0.000000    0.000000    0.000000    0.000000    0.000000    -6.986973    -0.167679    -2.389431    41.935120    35.991280    47.937050    4.902953    -20.744413    108.660301    -12.042864    -22.794569    -41.939930    3.484821    0.207255    7.123495    -4.654996    3.472820    4.599161    6.621905    2.165250    -7.486547    0.000000    0.000000    0.000000    -3.713074    4.530756    9.423944    8.249867    7.204266    0.256578    -16.441490    -6.335845    2.959787    0.000000    0.000000    0.000000    
-15.474777    98.691574    126.408562    -0.517780    1.582198    160.662857    -7.810639    -1.315336    -3.888658    1.419587    -8.428874    -3.694244    23.679543    25.876434    7.103470    -21.172443    14.656928    9.375690    13.040601    -5.926283    -13.685595    -56.518639    9.018560    -63.791485    0.000000    0.000000    0.000000    0.000000    0.000000    0.000000    -6.986973    -0.167679    -2.389431    42.065948    35.999229    47.873871    4.940727    -20.700109    108.705078    -12.057066    -22.800749    -41.933952    3.465729    0.214552    7.064115    -4.664867    3.521760    4.714180    6.458618    2.141008    -7.427245    0.000000    0.000000    0.000000    -3.648880    4.400707    9.911945    8.183571    7.446770    0.230916    -16.918467    -6.179885    3.261074    0.000000    0.000000    0.000000    
-15.501182    98.677856    126.409744    -0.552013    1.600295    160.673996    -7.898057    -1.277745    -3.918604    1.415105    -8.447268    -3.725883    23.698294    25.935329    7.086416    -21.162449    14.610868    9.365154    13.031085    -5.945335    -13.734129    -56.511299    8.940064    -63.724331    0.000000    0.000000    0.000000    0.000000    0.000000    0.000000    -6.986973    -0.167679    -2.389431    42.123028    36.083302    47.825836    4.874553    -20.791492    108.749565    -12.021736    -22.817936    -41.979870    3.425475    0.186476    6.952537    -4.689002    3.563520    5.025641    6.433440    2.136270    -7.639651    0.000000    0.000000    0.000000    -3.635180    4.294723    10.220163    8.152842    7.519615    -0.117580    -18.420282    -5.463451    3.928872    0.000000    0.000000    0.000000    
